<svg t="1713699943507" class="icon" viewBox="0 0 1024 1024" version="1.1" xmlns="http://www.w3.org/2000/svg" p-id="4241" width="200" height="200"><path d="M200.533333 106.666667a93.866667 93.866667 0 0 0-93.866666 93.866666v136.533334a93.866667 93.866667 0 0 0 93.866666 93.866666h136.533334a93.866667 93.866667 0 0 0 93.866666-93.866666V200.533333a93.866667 93.866667 0 0 0-93.866666-93.866666H200.533333m477.866667 0a93.866667 93.866667 0 0 0-93.866667 93.866666v136.533334a93.866667 93.866667 0 0 0 93.866667 93.866666h136.533333a93.866667 93.866667 0 0 0 93.866667-93.866666V200.533333a93.866667 93.866667 0 0 0-93.866667-93.866666h-136.533333M200.533333 584.533333a93.866667 93.866667 0 0 0-93.866666 93.866667v136.533333a93.866667 93.866667 0 0 0 93.866666 93.866667h136.533334a93.866667 93.866667 0 0 0 93.866666-93.866667v-136.533333a93.866667 93.866667 0 0 0-93.866666-93.866667H200.533333m477.866667 0a93.866667 93.866667 0 0 0-93.866667 93.866667v136.533333a93.866667 93.866667 0 0 0 93.866667 93.866667h136.533333a93.866667 93.866667 0 0 0 93.866667-93.866667v-136.533333a93.866667 93.866667 0 0 0-93.866667-93.866667h-136.533333M200.533333 64h136.533334a136.96 136.96 0 0 1 136.533333 136.533333v136.533334a136.96 136.96 0 0 1-136.533333 136.533333H200.533333a136.96 136.96 0 0 1-136.533333-136.533333V200.533333a136.96 136.96 0 0 1 136.533333-136.533333z m477.866667 0h136.533333a136.96 136.96 0 0 1 136.533334 136.533333v136.533334a136.96 136.96 0 0 1-136.533334 136.533333h-136.533333a136.96 136.96 0 0 1-136.533333-136.533333V200.533333a136.96 136.96 0 0 1 136.533333-136.533333zM200.533333 541.866667h136.533334a136.96 136.96 0 0 1 136.533333 136.533333v136.533333a136.96 136.96 0 0 1-136.533333 136.533334H200.533333a136.96 136.96 0 0 1-136.533333-136.533334v-136.533333a136.96 136.96 0 0 1 136.533333-136.533333z m477.866667 0h136.533333a136.96 136.96 0 0 1 136.533334 136.533333v136.533333a136.96 136.96 0 0 1-136.533334 136.533334h-136.533333a136.96 136.96 0 0 1-136.533333-136.533334v-136.533333a136.96 136.96 0 0 1 136.533333-136.533333z" fill="#d4237a" p-id="4242"></path></svg>